<svg width="23" height="23" viewBox="0 0 24 24" fill="none" xmlns="http://www.w3.org/2000/svg">
<path d="M3 17C3 16.4477 3.44772 16 4 16H6C6.55228 16 7 16.4477 7 17V20C7 20.5523 6.55228 21 6 21H4C3.44772 21 3 20.5523 3 20V17Z" stroke="#6B7280" stroke-width="1.6" class="my-path"></path>
<path d="M10 14C10 13.4477 10.4477 13 11 13H13C13.5523 13 14 13.4477 14 14V20C14 20.5523 13.5523 21 13 21H11C10.4477 21 10 20.5523 10 20V14Z" stroke="#6B7280" stroke-width="1.6" class="my-path"></path>
<path d="M17 10C17 9.44772 17.4477 9 18 9H20C20.5523 9 21 9.44772 21 10V20C21 20.5523 20.5523 21 20 21H18C17.4477 21 17 20.5523 17 20V10Z" stroke="#6B7280" stroke-width="1.6" class="my-path"></path>
<path d="M18 3V6.1427M18 3H14.6523M18 3L10.0259 10.0881C9.7251 10.3555 9.57468 10.4892 9.41321 10.5541C9.15504 10.6578 8.86532 10.6493 8.61369 10.5306C8.45631 10.4563 8.314 10.314 8.02939 10.0294C7.72925 9.72925 7.57918 9.57918 7.41454 9.50418C7.1512 9.38422 6.8488 9.38422 6.58546 9.50418C6.42082 9.57918 6.27075 9.72925 5.97061 10.0294L4 12" stroke="#6B7280" stroke-width="1.6" stroke-linecap="round" stroke-linejoin="round" class="my-path"></path>

</svg>