<svg width="23" height="23" viewBox="0 0 24 24" fill="none" xmlns="http://www.w3.org/2000/svg">
<path d="M20 6C20 7.65685 16.4183 9 12 9C7.58172 9 4 7.65685 4 6C4 4.34315 7.58172 3 12 3C16.4183 3 20 4.34315 20 6Z" stroke="#6B7280" stroke-width="1.6" class="my-path"></path>
<path d="M20 10C20 11.6569 16.4183 13 12 13C7.58172 13 4 11.6569 4 10" stroke="#6B7280" stroke-width="1.6" stroke-linecap="round" class="my-path"></path>
<path d="M20 14C20 15.6569 16.4183 17 12 17C7.58172 17 4 15.6569 4 14" stroke="#6B7280" stroke-width="1.6" stroke-linecap="round" class="my-path"></path>
<path d="M20 18C20 19.6569 16.4183 21 12 21C7.58172 21 4 19.6569 4 18" stroke="#6B7280" stroke-width="1.6" stroke-linecap="round" class="my-path"></path>
</svg>