  <svg
                      xmlns="http://www.w3.org/2000/svg"
                      width="20"
                      height="20"
                      viewBox="0 0 20 20"
                      fill="none"
                    >
                      <g id="User Circle">
                        <path
                          id="icon"
                          d="M5.5 16C5.5 13.9289 7.51472 12.25 10 12.25C12.4853 12.25 14.5 13.9289 14.5 16M12.25 7.75C12.25 8.99264 11.2426 10 10 10C8.75736 10 7.75 8.99264 7.75 7.75C7.75 6.50736 8.75736 5.5 10 5.5C11.2426 5.5 12.25 6.50736 12.25 7.75ZM17.5 10C17.5 14.1421 14.1421 17.5 10 17.5C5.85786 17.5 2.5 14.1421 2.5 10C2.5 5.85786 5.85786 2.5 10 2.5C14.1421 2.5 17.5 5.85786 17.5 10Z"
                          stroke="#6B7280"
                          stroke-width="1.6"
                        />
                      </g>
                    </svg>